HIERARCHY
ROOT Hips
{
	OFFSET 0.000000 8.830580 0.000000
	CHANNELS 6 Xposition Yposition Zposition Zrotation Yrotation Xrotation 
	JOINT Spine
	{
		OFFSET 0.000000 0.010000 0.000000
		CHANNELS 3 Zrotation Yrotation Xrotation
		JOINT Spine1
		{
			OFFSET 0.000000 2.459130 0.000000
			CHANNELS 3 Zrotation Yrotation Xrotation
			JOINT Neck
			{
				OFFSET 0.000000 2.484630 0.000000
				CHANNELS 3 Zrotation Yrotation Xrotation
				JOINT Head_virtual
				{
					OFFSET 0.000000 0.000000 0.000000
					CHANNELS 3 Zrotation Yrotation Xrotation
					JOINT Head
					{
						OFFSET 0.000000 0.927525 0.000000
						CHANNELS 3 Zrotation Yrotation Xrotation
						End Site
						{
							OFFSET 0.000000 0.000000 0.000000
						}
					}
				}
				JOINT LeftUpArm_virtual
				{
					OFFSET 0.000000 0.000000 0.000000
					CHANNELS 3 Zrotation Yrotation Xrotation
					JOINT LeftUpArm
					{
						OFFSET 1.248820 0.000000 0.000000
						CHANNELS 3 Zrotation Yrotation Xrotation
						JOINT LeftForeArm
						{
							OFFSET 2.597580 0.000000 0.000000
							CHANNELS 3 Zrotation Yrotation Xrotation
							JOINT LeftHand
							{
								OFFSET 2.455420 0.000000 0.000000
								CHANNELS 3 Zrotation Yrotation Xrotation
								End Site
								{
									OFFSET 0.000000 0.000000 0.000000
								}
							}
						}
					}
				}
				JOINT RightUpArm_virtual
				{
					OFFSET -0.000000 -0.000000 -0.000000
					CHANNELS 3 Zrotation Yrotation Xrotation
					JOINT RightUpArm
					{
						OFFSET -1.248820 -0.000000 -0.000000
						CHANNELS 3 Zrotation Yrotation Xrotation
						JOINT RightForeArm
						{
							OFFSET -2.597580 -0.000000 -0.000000
							CHANNELS 3 Zrotation Yrotation Xrotation
							JOINT RightHand
							{
								OFFSET -2.455420 -0.000000 -0.000000
								CHANNELS 3 Zrotation Yrotation Xrotation
								End Site
								{
									OFFSET 0.000000 0.000000 0.000000
								}
							}
						}
					}
				}
			}
		}
	}
	JOINT LeftUpLeg
	{
		OFFSET 1.271939 0.000000 0.000000
		CHANNELS 3 Zrotation Yrotation Xrotation
		JOINT LeftLowLeg
		{
			OFFSET 0.000000 -4.342910 0.000000
			CHANNELS 3 Zrotation Yrotation Xrotation
			JOINT LeftFoot
			{
				OFFSET 0.000000 -4.487670 0.000000
				CHANNELS 3 Zrotation Yrotation Xrotation
				JOINT LeftToeBase
				{
					OFFSET 0.000000 0.000000 1.515070
					CHANNELS 3 Zrotation Yrotation Xrotation
					End Site
					{
						OFFSET 0.000000 0.000000 0.000000
					}
				}
			}
		}
	}
	JOINT RightUpLeg
	{
		OFFSET -1.271939 0.000000 0.000000
		CHANNELS 3 Zrotation Yrotation Xrotation
		JOINT RightLowLeg
		{
			OFFSET 0.000000 -4.342910 0.000000
			CHANNELS 3 Zrotation Yrotation Xrotation
			JOINT RightFoot
			{
				OFFSET 0.000000 -4.487670 0.000000
				CHANNELS 3 Zrotation Yrotation Xrotation
				JOINT RightToeBase
				{
					OFFSET 0.000000 0.000000 1.515070
					CHANNELS 3 Zrotation Yrotation Xrotation
					End Site
					{
						OFFSET 0.000000 0.000000 0.000000
					}
				}
			}
		}
	}
}
MOTION
Frames: 16
Frame Time: 0.041667
-17.381525 9.124466 43.226682 -174.690452 7.578948 -172.534240 2.005264 0.669375 -7.042953 4.436192 1.190302 -13.336231 0.000000 0.000000 0.000000 -7.048404 -4.809806 25.906966 15.290804 8.994103 -83.184103 -24.631100 11.432600 -10.358800 10.184600 -9.715520 -29.604900 0.000000 -11.337800 0.000000 19.617201 13.092000 22.157101 19.596600 -6.516980 -6.562540 -4.077110 2.693240 -40.531200 0.000000 17.093800 0.000000 -25.531799 -18.097601 54.425800 0.721299 -0.592342 -5.393929 0.000000 0.000000 5.802990 -12.969321 14.857996 -0.861093 0.000000 0.000000 -30.051500 9.011865 -1.743726 -6.534189 0.000000 0.000000 9.223310 11.494516 -14.473611 4.604639 0.000000 0.000000 -35.585600 
-17.384885 9.123489 43.226948 -174.690405 7.506147 -172.567112 1.977409 0.636243 -7.105750 4.438571 1.159124 -13.281467 0.000000 0.000000 0.000000 -7.027874 -4.991475 26.101517 15.327835 8.930528 -83.142631 -24.491301 11.532700 -10.507200 9.605620 -9.350540 -31.493000 0.000000 -12.449600 0.000000 19.322500 13.550200 19.535200 19.642900 -6.537330 -6.538040 -3.971170 2.636990 -40.248001 0.000000 16.946699 0.000000 -25.787201 -17.771900 54.015499 0.706560 -0.637614 -5.372474 0.000000 0.000000 5.796730 -12.937631 14.836976 -0.867010 0.000000 0.000000 -30.042700 9.002830 -1.716315 -6.551442 0.000000 0.000000 9.305860 11.438821 -14.565182 4.536483 0.000000 0.000000 -35.638700 
-17.388729 9.122978 43.227458 -174.680998 7.433397 -172.587036 1.903684 0.641755 -7.097587 4.526188 1.180626 -13.380693 0.000000 0.000000 0.000000 -6.955723 -5.369047 26.347910 15.185196 8.840072 -83.056308 -24.499001 11.607900 -10.573200 9.206220 -9.187850 -32.731098 0.000000 -13.319300 0.000000 19.034700 13.499100 18.292900 19.616100 -6.613280 -6.402110 -3.829850 2.548070 -40.321201 0.000000 16.814199 0.000000 -25.800100 -17.534500 53.798000 0.709508 -0.916999 -5.331535 0.000000 0.000000 5.728890 -12.924077 15.047648 -0.894991 0.000000 0.000000 -30.005100 8.996478 -1.711650 -6.579299 0.000000 0.000000 9.384520 11.454399 -14.604717 4.482416 0.000000 0.000000 -35.635900 
-17.392854 9.122196 43.228918 -174.659139 7.350366 -172.620292 1.884471 0.632519 -7.087144 4.544289 1.178132 -13.456698 0.000000 0.000000 0.000000 -6.915033 -5.675702 26.615994 15.124418 8.744824 -82.973443 -24.489500 11.645900 -10.660100 8.886330 -8.988800 -33.110802 0.000000 -14.170300 0.000000 18.618000 13.291600 18.266399 19.619699 -6.628740 -6.378110 -3.671310 2.470540 -40.302101 0.000000 16.703199 0.000000 -25.689400 -17.512300 53.601101 0.689219 -0.546611 -5.388956 0.000000 0.000000 5.857750 -12.873037 14.640799 -0.866126 0.000000 0.000000 -30.084400 9.001665 -1.717580 -6.613655 0.000000 0.000000 9.491750 11.441781 -14.649385 4.441254 0.000000 0.000000 -35.656300 
-17.396817 9.121406 43.229131 -174.646118 7.253013 -172.683717 1.858168 0.628345 -7.110700 4.568357 1.177430 -13.445192 0.000000 0.000000 0.000000 -6.881671 -5.966911 26.861775 15.071002 8.653146 -82.919028 -24.517700 11.570100 -10.604400 8.693200 -8.846700 -33.444599 0.000000 -14.740800 0.000000 18.282700 13.012600 18.877001 19.657600 -6.649520 -6.348710 -3.573410 2.361840 -40.202301 0.000000 16.578400 0.000000 -25.466400 -17.479000 53.300499 0.686284 -0.633865 -5.337388 0.000000 0.000000 5.847050 -12.821449 14.652579 -0.871030 0.000000 0.000000 -30.046900 9.004220 -1.849306 -6.587946 0.000000 0.000000 9.551550 11.411569 -14.615448 4.416275 0.000000 0.000000 -35.677500 
-17.400624 9.120394 43.229725 -174.627039 7.140422 -172.748832 1.882747 0.617543 -7.129706 4.517776 1.162345 -13.423113 0.000000 0.000000 0.000000 -6.846934 -6.228229 27.052679 15.008794 8.563027 -82.831195 -24.500900 11.488000 -10.551200 8.611870 -8.685950 -32.678902 0.000000 -15.175400 0.000000 17.838499 13.003200 18.245899 19.726601 -6.617500 -6.228630 -3.468850 2.291270 -40.487400 0.000000 16.386801 0.000000 -25.493299 -17.341000 53.296700 0.688902 -0.662681 -5.302175 0.000000 0.000000 5.863240 -12.801844 14.594326 -0.886713 0.000000 0.000000 -30.088800 9.015155 -1.969115 -6.579503 0.000000 0.000000 9.648370 11.395410 -14.602030 4.360503 0.000000 0.000000 -35.626101 
-17.404361 9.119629 43.230633 -174.613971 7.055888 -172.835191 1.864355 0.620567 -7.145521 4.525048 1.164858 -13.349910 0.000000 0.000000 0.000000 -6.817417 -6.440478 27.224722 14.950331 8.505282 -82.785935 -24.451500 11.392500 -10.524000 8.415830 -8.652930 -32.195099 0.000000 -15.434800 0.000000 17.704800 12.912900 17.783701 19.762699 -6.622510 -6.190200 -3.378350 2.222630 -40.120899 0.000000 16.255100 0.000000 -25.575399 -17.436001 52.978699 0.678302 -0.623096 -5.237371 0.000000 0.000000 5.866830 -12.758835 14.505264 -0.879228 0.000000 0.000000 -30.070800 9.014541 -2.027360 -6.538010 0.000000 0.000000 9.712810 11.402176 -14.618397 4.322377 0.000000 0.000000 -35.633900 
-17.407907 9.119224 43.233183 -174.604028 6.912345 -172.887768 1.812512 0.599922 -7.132473 4.570794 1.152551 -13.355752 0.000000 0.000000 0.000000 -6.763838 -6.703643 27.390801 14.857781 8.469805 -82.769924 -24.449699 11.315400 -10.323600 8.300070 -8.710330 -31.906099 0.000000 -15.533600 0.000000 17.659800 12.785100 17.393600 19.786301 -6.638380 -6.114650 -3.282630 2.223810 -40.494598 0.000000 16.067801 0.000000 -25.507099 -17.314501 52.985001 0.671846 -0.601098 -5.255510 0.000000 0.000000 5.926230 -12.716415 14.386140 -0.861722 0.000000 0.000000 -30.055100 9.024270 -2.160395 -6.555600 0.000000 0.000000 9.803050 11.359945 -14.634423 4.302535 0.000000 0.000000 -35.633200 
-17.411927 9.118784 43.235342 -174.597327 6.826940 -172.938983 1.756249 0.581393 -7.122879 4.675788 1.140202 -13.335689 0.000000 0.000000 0.000000 -6.822484 -6.701617 27.497531 14.892761 8.383411 -82.729770 -24.498800 11.276500 -10.209000 8.247930 -8.845960 -31.628599 0.000000 -15.404000 0.000000 17.489901 12.630200 17.463900 19.826700 -6.409410 -6.589520 -3.269970 1.990960 -40.014500 0.000000 16.065500 0.000000 -25.477400 -17.472000 52.978802 0.664022 -0.661138 -5.233519 0.000000 0.000000 5.925280 -12.697783 14.365898 -0.846264 0.000000 0.000000 -30.083600 9.022245 -2.276990 -6.586063 0.000000 0.000000 9.920320 11.336514 -14.608379 4.270293 0.000000 0.000000 -35.645800 
-17.415862 9.118279 43.237931 -174.588543 6.727155 -172.984080 1.717397 0.538856 -7.115226 4.734258 1.102682 -13.333315 0.000000 0.000000 0.000000 -6.828988 -6.700237 27.611235 14.850036 8.375452 -82.659097 -24.500401 11.184900 -10.241900 8.149910 -8.953550 -31.403200 0.000000 -15.276300 0.000000 17.509501 12.583200 18.254601 19.780001 -6.511130 -6.403900 -3.130070 2.211370 -40.255001 0.000000 15.909400 0.000000 -25.458500 -17.310301 53.060600 0.622256 0.009437 -5.346020 0.000000 0.000000 6.155030 -12.610519 13.666349 -0.757652 0.000000 0.000000 -30.207100 9.024378 -2.425324 -6.623429 0.000000 0.000000 10.036100 11.313953 -14.564823 4.246195 0.000000 0.000000 -35.639500 
-17.420082 9.118366 43.239982 -174.572902 6.672237 -173.007868 1.720024 0.520953 -7.130156 4.757848 1.082606 -13.316120 0.000000 0.000000 0.000000 -6.859818 -6.680762 27.706343 14.899594 8.350427 -82.654178 -24.517599 11.106200 -10.073600 8.183810 -9.057630 -30.863100 0.000000 -14.972100 0.000000 17.585300 12.467900 18.665501 19.841200 -6.359870 -6.650570 -3.148480 2.115360 -39.973900 0.000000 15.900300 0.000000 -25.348101 -17.351601 52.819500 0.653478 -0.717226 -5.233661 0.000000 0.000000 5.951790 -12.632955 14.302705 -0.817026 0.000000 0.000000 -30.118600 9.024367 -2.547467 -6.669371 0.000000 0.000000 10.136300 11.286216 -14.491226 4.255833 0.000000 0.000000 -35.675900 
-17.424194 9.118547 43.241977 -174.564359 6.626579 -173.028420 1.726997 0.491441 -7.120864 4.752387 1.050931 -13.300478 0.000000 0.000000 0.000000 -6.833621 -6.707056 27.731018 14.853241 8.389470 -82.663231 -24.539301 11.049400 -9.964860 8.239100 -9.147350 -30.534401 0.000000 -14.709500 0.000000 17.599701 12.406200 19.375999 19.874800 -6.293700 -6.576160 -3.115720 2.104160 -40.075401 0.000000 15.931600 0.000000 -25.261200 -17.176701 52.915401 0.642821 -0.833704 -5.214884 0.000000 0.000000 5.914800 -12.606640 14.399039 -0.804782 0.000000 0.000000 -30.074500 9.015060 -2.637238 -6.695033 0.000000 0.000000 10.192500 11.276208 -14.442025 4.268005 0.000000 0.000000 -35.706699 
-17.428009 9.118157 43.244431 -174.521359 6.591955 -173.045932 1.738838 0.484669 -7.101675 4.791006 1.039440 -13.272624 0.000000 0.000000 0.000000 -6.796786 -6.731781 27.691464 14.807973 8.416940 -82.631153 -24.523701 10.995100 -10.029800 8.162610 -9.308200 -30.334700 0.000000 -14.453900 0.000000 17.712799 12.356300 19.971800 19.861500 -6.313760 -6.543940 -3.092020 2.169720 -40.049900 0.000000 15.986800 0.000000 -25.130100 -17.131201 52.628101 0.626122 -0.069823 -5.323934 0.000000 0.000000 6.113170 -12.561088 13.678708 -0.737828 0.000000 0.000000 -30.162600 9.040692 -2.713232 -6.721309 0.000000 0.000000 10.247100 11.259819 -14.396325 4.290775 0.000000 0.000000 -35.753000 
-17.432324 9.118208 43.246740 -174.491236 6.613894 -173.033379 1.721319 0.504794 -7.099567 4.866593 1.059988 -13.256610 0.000000 0.000000 0.000000 -6.755803 -6.805323 27.663243 14.779208 8.435049 -82.631720 -24.542299 10.919300 -9.930690 8.107470 -9.367630 -30.292601 0.000000 -14.275700 0.000000 17.861099 12.301200 19.969900 19.812700 -6.359190 -6.507950 -3.065800 2.245030 -40.021500 0.000000 16.105400 0.000000 -25.052500 -17.108999 52.293999 0.639026 -0.158961 -5.287741 0.000000 0.000000 6.002120 -12.587349 13.780805 -0.736502 0.000000 0.000000 -30.142100 9.043700 -2.773715 -6.776917 0.000000 0.000000 10.300300 11.255006 -14.303661 4.323574 0.000000 0.000000 -35.765499 
-17.436602 9.117859 43.249784 -174.453806 6.653228 -173.015719 1.595928 0.459578 -7.307306 5.199414 1.002944 -12.807895 0.000000 0.000000 0.000000 -6.790721 -6.775154 27.454945 14.758546 8.398365 -82.733084 -24.723900 10.875500 -10.226700 7.992860 -9.408380 -30.465799 0.000000 -14.221200 0.000000 18.052999 12.329300 19.986300 19.700899 -6.161800 -6.648580 -3.057360 2.259280 -39.924400 0.000000 16.221901 0.000000 -24.949499 -16.959000 51.789200 0.643761 -0.062960 -5.277003 0.000000 0.000000 5.930600 -12.573859 13.750017 -0.733111 0.000000 0.000000 -30.128600 9.051668 -2.823852 -6.816096 0.000000 0.000000 10.307900 11.277704 -14.193133 4.362513 0.000000 0.000000 -35.818100 
-17.435318 9.121718 43.255066 -174.292299 6.765771 -173.019710 1.549822 0.486628 -7.104198 5.436086 1.046464 -13.042814 0.000000 0.000000 0.000000 -6.762805 -6.829761 27.641066 14.767458 8.493574 -82.869668 -24.826401 10.846600 -10.103600 7.990600 -9.385970 -30.566799 0.000000 -14.236900 0.000000 18.325600 12.310000 19.838600 19.717800 -6.138370 -6.534110 -3.071710 2.246100 -40.025902 0.000000 16.372299 0.000000 -24.799400 -16.493200 51.027599 0.825157 -0.194895 -5.178250 0.000000 0.000000 5.758900 -12.626991 13.973782 -0.705582 0.000000 0.000000 -30.104200 9.039021 -0.679962 -6.339498 0.000000 0.000000 9.429540 12.224817 -15.430902 4.383198 0.000000 0.000000 -35.878901 
